<svg xmlns="http://www.w3.org/2000/svg" viewBox="0 0 138 138"><path d="M96.596 76.068h11.395v41.018H96.77l-.17-41.018zm-16.583-11.99h11.055l.057 48.02-.34 4.705H80.21l-.197-3.714V64.073zm-14.995 28.63l11.253-.028-.11 4.394v16.016l.087 3.997h-11.23v-24.38zM48.52 86.075H60v31.01H48.917l-.397-31.01zm-16.498 9.95l.992-.03h10.29l-.142 4.083.085 12.02-.425 4.733-10.744-.08-.056-20.722zm-4.99-76.055H71.48l-.142 41.13-44.078-.453-.227-40.677zm63.27-3.09l21.912 30.217H90.018l.285-30.217zm-70.3 110.21h97.995v-79c0-2.466-17.264-23.33-20.863-28.148-8.192-10.97-4.11-8.873-15.137-8.873H20.003v116.02z"/><path d="M60 56.083H32.022c.652-4.082-1.644-3.26 4.875-3.316L60 52.852v3.23zm-15.987-7c-3.997-.03-7.994 0-11.99 0V46.02h21.315c-.708 4.31 1.616 2.58-3.203 3.175-.737.114-4.99-.113-6.122-.113zm5.98-6.804H36.02c-5.585-.03-3.573.99-4.026-3.208h18v3.203zm9.07-9.926c5.7-.057 5.557-1.077 4.934 3.713H32.022c.2-5.13 1.22-3.77 6.945-3.685l20.097-.028zm.937-3.26H32.022V26.09h-1.02H60v3.005zm-30.982 29.99l40.96-.028-.623-36.483c-.028-.397-.198-.482-.312-1.077l-39.97.114-.055 37.475z"/></svg>