<svg xmlns="http://www.w3.org/2000/svg" viewBox="0 0 138 138"><path d="M53.35 8.39c.5-.12 1.51-.37 2.01-.49 4.24 3.12 8.26 6.56 12.16 10.1-3.29 4.73-8.41 7.67-12.65 11.46-2.74-.94-2.18-3.55-1.96-5.91-3.18-.93-5.86 1.5-8.55 2.74-8.23 4.32-14.5 11.41-19.28 19.25-.08.5-.26 1.5-.34 2l-1.58 1.78c-1.12 3.88-2.32 7.74-3.07 11.71-2.76-.03-5.52-.06-8.28-.14.67-4.87 1.67-9.68 3.49-14.25 4.36-9.98 11.15-19.1 20.51-24.87 4.9-3.38 10.61-5.15 16.09-7.31.55-2.01 1.04-4.03 1.45-6.07zM76 11.81c1.95-.81 4.06-.9 6.15-.74 2.32.99 4.76 1.68 7.21 2.26 10.08 4.18 19.65 10.38 25.8 19.6 4.15 5.41 5.98 12.04 8.78 18.142 1.54-.02 3.08-.05 4.62-.07l1.87 2.11c-2.08 4.17-5.75 7.2-8.18 11.13-1.68.34-3.89 1.57-5.18-.2-2.86-3.06-5.36-6.45-8.352-9.4-.15-3.49 3.13-3.79 5.8-4.1-.59-3.3-2.34-6.19-3.8-9.15C105.91 34.51 99.99 28.2 92.44 24.3c-5.02-3.19-11.18-3.48-16.36-6.25 0-2.08-.04-4.16-.08-6.24zM78.3 40.4c2.14-.63 4.19-1.66 6.42-1.94 1.77.38 3.44 1.17 4.98 2.12 1.96 1.59 2.31 4.29 3.37 6.43-.41 2.06-.94 4.1-1.42 6.15-1.07.93-2.14 1.87-3.19 2.83-3.59.91-8.02 1.29-10.71-1.79-3.88-3.75-2.64-10.01.55-13.8zM45.62 44.49c3.24-.85 6.72-.65 10.02-.23 9.3 3.41 9.99 18.23 1.53 22.96-5.23 3.25-12.68 1.63-16.29-3.31-3.79-6.37-2.39-15.99 4.74-19.42zM67.09 69.47c.12-3.8 2.37-8.18 6.63-8.32 6.79-.09 13.59-.04 20.38-.04 2.45-.18 4.14 1.8 5.93 3.12-.51 7.17 1.73 15.42-3.31 21.45-4.72 4.04-11.53 1.64-17.16 2.24-.28-2.8-.17-5.71-1.42-8.3-2.09-4.75-6.47-7.99-11.05-10.15zM28.01 80.65c2.4-3.24 5.35-6.99 9.8-6.95 7.74-.19 15.49.12 23.24-.1 5.31-.43 11.27 2.47 12.88 7.82 1.34 5.24-1.19 10.4-1.09 15.66-.17 6.08-3 13.47-9.67 14.75-7.39.41-14.82.07-22.22.18-4.65.32-8.73-3.24-10.34-7.38-1.88-7.85-3.14-15.87-2.6-23.98zM112.77 92.65c3.2-5.82 4.85-12.22 6.65-18.55 2-.03 4.01-.05 6.02-.07.52.43 1.57 1.29 2.09 1.72-.27 1.84-.51 3.68-.76 5.52-4.03 16.06-14.98 30.53-30.21 37.44-3.28 1.96-7.38 2.26-10.41 4.58-.3 1.97-.34 3.97-.49 5.97-1.55-.18-3.38.28-4.6-.96-3.73-2.97-7.51-5.92-10.58-9.59 3.86-4.52 8.66-8.16 13.45-11.67.48.65 1.45 1.94 1.94 2.58.03 1.25.06 2.5.1 3.76 5.49-.47 10.08-3.91 14.4-7.03 5.14-3.55 8.74-8.75 12.4-13.7z"/></svg>