<svg xmlns="http://www.w3.org/2000/svg" viewBox="0 0 138 138"><path d="M44.957 37.587c6.605-1.162 22.28-.312 30.047-.312 33.563 0 29.906.822 30.02 31.72.027 6.52 1.475 18.228-11.963 19.05-9.49.594-21.31 0-31.06 0-10.94 0-21.173 2.012-25.793-5.244-2.127-3.4-10.63-41.86 8.758-45.21zm-5.442-4.592c-11.055 4.025-11.537 11.112-11.51 25 .03 12.473-1.983 23.7 5.273 30.73 6.832 6.632 19.53 4.534 31.72 4.505 37.36-.057 45.98 5.047 45.95-26.22-.028-35.093-.085-34.98-36.937-34.98-8.55 0-27.77-1.473-34.49.965z"/><path d="M48.614 59.386c5.868 1.786 9.496-6.406 20.608-7 10.233-.51 13.266 6.547 19.786 8.332l2.947-2.607c-6.293-17.97-48.16-11.65-43.34 1.28z"/><path d="M55.56 66.444c5.923 4.45 6.745-2.183 13.49-2.438 7.598-.284 8.108 6.662 14.627 2.665-.935-11.56-27.438-10.99-28.118-.22zm41.442 33.59l-57.998-.03c-5.783-.055-14.77-.45-12.246 7.344 1.616 4.96 9.92 3.543 16.243 3.543 7.01-.02 14.01.09 21.01.09l33.99-.11c8.506.028 14.686 1.985 14.91-6.86-3.74-5.642-7.282-4-15.9-3.97zm-22.99 8.42c-12.302 0-14.768 1.53-15.08-4.536.312-.313 1.956-.906 3.062-.906 15.903 0 17.83-1.617 17.83 3.996-2.693 2.068-2.07 1.445-5.812 1.445z"/><path d="M67.294 70.045c-6.35 4.393.425 11.82 5.5 7.738 4.308-3.486.112-11.594-5.5-7.738z"/></svg>