<svg xmlns="http://www.w3.org/2000/svg" viewBox="0 0 138 138"><path d="M21.24 14.997v110.5h78.207v-110.5H21.24zm49.686 21.005h9.65v11h-9.65V36zm0 20h9.65v11h-9.65V56zm0 19.49h9.65v11h-9.65v-11zm0 20h9.65v10.998h-9.65V95.492zm-15.65-59.49h9.664v11h-9.663V36zm0 20h9.664v11h-9.663V56zm0 19.49h9.664v11h-9.663v-11zm0 20h9.664v10.998h-9.663V95.492zm-15.18-59.49h9.208v11h-9.207V36zm0 20h9.208v11h-9.207V56zm0 19.49h9.208v11h-9.207v-11zm0 20h9.208v10.998h-9.207V95.492zM24.46 36.002h9.664v11H24.46V36zm0 20h9.664v11H24.46V56zm0 19.49h9.664v11H24.46v-11zm0 20h9.664v10.998H24.46V95.492zm71.296 21.006H24.46v-3.5h71.295v3.5zm0-10.008h-9.193V95.492h9.193v10.998zm0-20h-9.193V75.493h9.193v11zm0-19.49h-9.193V56.003h9.193v11zm0-20h-9.193V36.003h9.193v11zM1 69.992h16.562v5.5H1zM1 120.99h16.562v4.508H1zM102.198 37.505v9h31.285v2.99h-31.285v3.998h4.604v9h-4.604v7.003h4.604v9h-4.604V85.5h4.604v9h-4.604v7.002h4.604v9h-4.604v4.493h31.285v3.5h-31.285v7.003h33.58V37.505H102.2zm13.34 72.997h-5.06v-9h5.06v9zm0-16.002h-5.06v-9h5.06v9zm0-16.004h-5.06v-9h5.06v9zm0-16.002h-5.06v-9h5.06v9zm9.208 48.008h-5.53v-9h5.53v9zm0-16.002h-5.53v-9h5.53v9zm0-16.004h-5.53v-9h5.53v9zm0-16.002h-5.53v-9h5.53v9zm8.737 48.008h-5.06v-9h5.06v9zm0-16.002h-5.06v-9h5.06v9zm0-16.004h-5.06v-9h5.06v9zm0-16.002h-5.06v-9h5.06v9zM17.562 80.495V78H1v40.992h16.562v-2.99h-3.22v-5.5h3.22v-4.508h-3.22v-5.5h3.22v-4.492h-3.22v-5.5h3.22v-4.507h-3.22v-5.5h3.22zM6.986 116.002h-3.69v-5.5h3.69v5.5zm0-10.008h-3.69v-5.5h3.69v5.5zm0-9.992h-3.69v-5.5h3.69v5.5zm0-10.007h-3.69v-5.5h3.69v5.5zm5.516 30.007H8.825v-5.5h3.677v5.5zm0-10.008H8.825v-5.5h3.677v5.5zm0-9.992H8.825v-5.5h3.677v5.5zm0-10.007H8.825v-5.5h3.677v5.5z"/></svg>