<svg xmlns="http://www.w3.org/2000/svg" viewBox="0 0 138 138"><path d="M52.88 83.772L41.17 57.748c-.593-1.357-1.27-2.566-1.817-3.873l-2.244-5.032c-.24-.55-.2-.392-.46-.915l-4.47-10.082c-.52-1.09-1.31-3.084-1.89-4.004l-8.37 4.328c-.74.318-1.02.455-1.69.813-.76.41-3.33 1.556-3.33 1.874 0 .778 4.274 9.803 5.18 11.717.2.432.302.738.47 1.102.333.727.64 1.357 1.01 2.136L39.1 90.185c.45.8 1.85 1.966 2.913 3.112.604.647 1.026.88 1.61 1.494l5.454 5.43c.306.27.487.5.765.79l1.44 1.47c.556.53 1.106 1.29 1.806 1.49l-.23-20.19zm-30.306-37.31c-.337-.737-1.646-3.566-1.7-4.207l8.107-4.203 1.89 4.407-8.29 4zm28.84 39.47v9.615c-3.606.89-1.592 3.35-6.268-1.557l-3.238-3.164c-1.256-1.033-1.09-1.057-1.806-2.493 1.23.307 4.243 1.93 5.093 2.005 0-1.33.14-2.93.374-4.004 1.08.307 2.5 1.692 3.58 2 .31-.677.56-1.676.86-2.488.31-.857.41-2.045 1.02-2.517.28 1.26.39.25.38 2.6zm62.206 26.244H74.03v-57.7c0-.89.16-2.11.503-2.674.4-.66 1.17-1.13 2.137-1.13h34.496c1.507 0 3.02 1.54 3.02 4.004v56.898c0 .46-.134.602-.567.602zm-42.79-59.3v62.907h46.557v-62.71c0-1.43-1.016-3.22-1.945-4.14-.877-.88-3.04-2.067-4.083-2.067H76.67c-1.362 0-2.955.772-4.008 1.75-.785.732-1.832 2.782-1.832 4.26zm14.818-21.362c-.032-.028-.07-.068-.096-.097l-7.183-7.594c-.37-.386-.65-.642-1.07-1.073l-2-2.08c-.44-.46-1.63-2.055-2.22-2.055H28.04v11.02c0 1.004 1.604.6 4.148.6v-7.212H69.13c0 3.187-.262 16.562.192 18.635h15.833v2h4.147v-8.014c.002-.625-2.89-3.33-3.654-4.13zm-12.37 5.736V24.625L85.198 37.2l-11.92.05z"/><path d="M92.69 62.292v-1.204c.984-.023 1.434-.216 1.514-1.198h1.128v5.804h-1.32V62.69c0-.926-1.112-.642-1.32-.398zm11.128-.603h-.754c0-1.33.802-2.01 2.073-2.01 1.128 0 2.875.63 1.507 2.8.252.4.754.8.754 1.4 0 2.56-4.526 2.98-4.526-.2h1.32c.122 1.55.903.87 1.698.8 0-1.17-.037-1.38-1.133-1.4v-.8c1.4-.13 1.727-1.41.188-1.41-.84 0-.29.8-1.127.8zm-6.22.4c0-.8.06-1.25.47-1.71 1.748-1.98 5.767.54 2.924 2.91-.183.15-.46.29-.69.46-.63.45-.443.173-.63.73h2.26v1.4h-3.96c-1.313 0 .13-1.908.53-2.244.785-.64 1.565-.9 2.11-1.764-.176-.795-.203-1-.94-1-.63 0-.583.42-.812.744-.477.68-.044.464-1.262.464zM77.424 69.1h32.8c.435 0 .568-.135.568-.6 0-2.585.245-10.435-.192-12.423H77.424V69.1zm-48.817 46.683h39.396v-4.408H32.188V85.328c0-.624-3.313-8.422-4.147-9.014 0 12.154.15 25.35 0 37.47-.01.925-.25 2 .57 2zM77.424 74.31c0 2.55-.348 4.01.566 4.01h14.327v-4.61H77.99c-.432-.002-.566.14-.566.6zm18.474 4.01H110.6c.33-1.494.192-2.227.192-4.01 0-.46-.134-.603-.567-.603H95.898v4.613zm-.566 4.004v5.81c0 .46.133.603.566.603h5.093c.44 0 .57-.143.57-.602v-5.81c0-.462-.13-.603-.56-.603h-5.1c-.43 0-.56.14-.56.602zm-9.048 0v5.81c0 .46.134.603.566.603h5.087c.44 0 .567-.143.567-.602v-5.81c0-.462-.128-.603-.567-.603H86.85c-.432 0-.566.14-.566.602zm-8.86 18.636v5.81c0 .46.134.596.566.596h5.094c.432 0 .56-.137.56-.596v-5.81c0-.467-.128-.603-.56-.603H77.99c-.432 0-.566.136-.566.602zm17.908 0v5.81c0 .46.133.596.566.596h5.093c.44 0 .57-.137.57-.596v-5.81c0-.467-.13-.603-.56-.603h-5.1c-.43 0-.56.136-.56.602zm9.048 0v5.81c0 .46.133.596.565.596h5.093c.433 0 .562-.137.562-.596v-5.81c0-.467-.13-.603-.562-.603h-5.093c-.432 0-.566.136-.566.602zm.19-18.636v5.81c0 .46.13.603.567.603h5.087c.434 0 .567-.143.567-.602v-5.81c0-.462-.13-.603-.56-.603h-5.08c-.44 0-.562.14-.562.602zm-26.953 0v5.81c0 .46.127.603.56.603h5.094c.44 0 .57-.143.57-.602v-5.81c0-.462-.13-.603-.56-.603h-5.1c-.43 0-.56.14-.56.602zm8.48 18.636v5.81c0 .46.13.596.567.596h5.087c.44 0 .57-.137.57-.596v-5.81c0-.467-.13-.603-.56-.603h-5.09c-.44 0-.56.136-.56.602zm18.283-9.22v5.61c0 .462.133.6.565.6h5.093c.433 0 .562-.138.562-.6v-5.61c0-.46-.13-.602-.562-.602h-5.093c-.432 0-.566.143-.566.602zm-9.048 6.01l5.83.022.006-6.435-5.836.006c-.02.045-.05.067-.054.142-.01.073-.048.108-.054.142l-.086 5.328c.033.438-.03-.035.043.357.09.432.01.194.16.438zm-8.862-.023l5.848.086.005-6.47-5.852.04-.17.568c-.02.18-.02.59-.02.78l.2 5zm-8.677.056l5.81.018.01-6.45-5.82-.01"/></svg>