<svg xmlns="http://www.w3.org/2000/svg" viewBox="0 0 138 138"><path d="M82.232 22.875l15.592.397c-.113-14.825-15.392-14.23-15.592-.397zm29.112 4.763c-6.434-1.956-36.934-.652-46.232-.51l-.028 31.437 17.178.027-.086 57.46c-.084 6.32.71 12.017 7.71 11.706 11.198-.51 8.022-19.39 8.022-29.764-.027-13.125.086-26.277-.027-39.403 7.74 0 20.382 1.476 22.423-2.294.992-3.146-6.832-24.747-8.96-28.658zm-5.385 5.272l-28.007-.227c-8.76.113-6.01-.482-6.832-2.155l36.823-.17 8.248 23.046-10.23-20.494zM64.26 80.816c-3.372-2.95-9.92-1.19-16.015-1.957 1.05-15.875-.964-10.687-1.7-15.988l-.058-37.87c.057-6.124.794-13.126-6.463-13.012-6.917.114-6.038 5.47-5.98 11.99l.027 38.042c-.31 2.722-.17 1.36-.906 3.175-.964 2.324-.652-1.19-1.474 3.826-.34 1.985 0 7.71.142 9.95-7.257.682-12.813-1.162-17.604 2.127.794 6.15 2.75-2.438 2.58 14.91-.057 6.86 0 10.035 2.835 15.336 3.4 6.406 11.423 16.13 20.438 16.355 11.736.284 22.452-15.052 22.338-31.69-.028-2.127-.283-6.975.085-8.816.993-5.272 3.346-1.758 1.758-6.378zm-43.2 16.016c3.346 5.215 3.346 11.025 10.064 20.068 2.268 3.063 2.07 1.814 3.8 5.244-8.704-4.648-14.515-11.65-13.863-25.312z"/></svg>