<svg xmlns="http://www.w3.org/2000/svg" viewBox="0 0 138 138"><path d="M15.973 23.008v94.99c0 2.408 3.6 6.008 6.01 6.008h95.98c4.903 0 3.997-5.3 3.997-9.014 0-2.41-1.616-2.92-2.977-4.99-3.146.256-3.572.993-7.002.993h-79c-4.96 0-3-13.437-3-22.99V35.992c0-18.878 1.53-21.996-9.014-21.996-3.91 0-4.986 4.96-4.986 9.014z"/><path d="M98.15 33.015l3.4 3.486c.113.12.37.34.567.518l-1.134 1.898c-.113.17-.284.455-.397.625l-5.016 7c-1.45 2.154-1.137 1.587-2.555 3.458-.113.17-.283.396-.425.566l-4.14 5.87-.85 1.133-3.344 5.442c-4.507-.625-7.71-3.43-11.34-5.868-5.753-3.88-7.822-2.72-12.556 4.2-.112.17-.255.424-.396.594-.113.17-.255.426-.397.597l-4.988 7.03-.4.595-8.02 10.97c-1.05 1.5-1.08 1.416-2.158 2.862l-.85 1.135c-.17.228-.653.937-.823 1.19-.88 1.305-.623.965-1.587 2.41-6.123 9.41 1.53 10.29 3.91 9.04 3.913-2.04 9.186-12.05 12.56-16.44L68.98 65.84l8.107 4.96c4.706 2.92 4.337 3.26 9.893 3.062l22.99-30.926c2.267 1.56 1.785 1.843 5.726 1.786.65-7.427 1.22-11.707 1.275-19.73-3.962.256-12.67 4.11-16.64 6.492-.25.142-.96.596-1.13.737l-1.05.8z"/></svg>