<svg xmlns="http://www.w3.org/2000/svg" viewBox="0 0 138 138"><path d="M102.5 57.543c-16.668-23.584-18.254-26.787-35.716-.765-4.564 6.803-10.12 15.902-12.246 24.718-5.47 22.508 7.455 42.52 28.46 42.52 32.74 0 43.086-33.053 19.502-66.473zm3.516 46.46c-8.305 18.228-26.787 8.702-20.863-5.868 7.285-17.887 27.892-9.58 20.863 5.87zM39.033 20.24c-8.25 3.684-18.028 21.004-18.028 29.763v4.99c0 17.034 26.136 22.874 33.96 5.98 6.66-14.428-7.03-34.866-15.932-40.734zM43 65.99c-10.12-10.12.256-16.78 4.792-15.93 3.515.624 10.885 8.957-4.79 15.93z"/></svg>