<svg xmlns="http://www.w3.org/2000/svg" viewBox="0 0 172.83 79.836"><path d="M85.53 25.708v1.532c0 6.45 3.593 12.855 10.026 12.855 3.37 0 7.313-4.194 7.515-7.03l-1.26-.873c-.17 2.043-3.04 5.66-5.42 5.66h-1.06c-3.96 0-5.78-5.667-5.78-9.904v-3.185c0-4.1 2-10.495 5.67-10.495h1.42c2.15 0 4.3 2.908 4.75 4.755l1.27-1.1c-1.4-2.65-3.05-5.422-7.08-5.422h-.94c-5.58 0-9.08 7.23-9.08 13.21zm20.056-2.83v16.51h2.95l-.03-12.74.147-2.71c.46-.306.76-.47 1.533-.47h1.416c1.063 0 2.48-.087 2.48.943v14.98h1.296V23.35c0-1.22-.932-1.413-2.123-1.413h-4.365c-.976 0-3.304.08-3.304.943zm13.566 1.414v13.09c0 .955.578 2.005 1.533 2.005H128v-1.534h-4.956c-.43 0-.943-.324-.943-.707v-6.132h4.72v-1.65h-4.72v-4.836c0-.807.74-.943 1.54-.943h4.25v-1.533h-6.49c-1.48 0-2.24.757-2.24 2.24zm11.915 15.096h2.95l.03-7.92 4.57 7.92 3.723-.04-5.875-9.885 4.513-7.41-1.636.01-5.326 8.597V11.084h-2.95m12.152 12.502h2.714v15.802h2.95V23.586h2.83v-1.533h-8.494m11.444 24.41h2.95v-6.958c3.483 0 4.413.24 6.458-1.797 1.322-1.32 2.39-3.517 2.39-6.103v-1.297c0-4.268-2.862-8.254-7.08-8.254h-4.718v24.41zm2.95-22.877h.825c3.955 0 5.072 3.322 5.072 7.194v1.65c0 1.54-.64 3.68-1.39 4.512-1.28 1.414-2.32 1.03-4.52 1.03V23.586zM43.06 0h-4.482c-.156.1-3.172.374-3.568.443-1.17.202-2.294.414-3.292.717-2.28.696-3.926 1.284-5.88 2.26-3.837 1.916-6.502 3.87-9.41 6.75-4.703 4.662-9.584 13.53-9.584 22.85v1.416c0 9.827 4.93 18.196 9.88 23.143 4.885 4.88 13.37 9.99 23.034 9.99h1.888c5.272 0 10.886-2.02 14.47-3.82 3.41-1.71 8.11-5.25 10.257-8.15 2.624-3.54 5.08-7.03 7.55-10.73.68-1.02 7.48-10.91 7.48-10.92 0-.48-13.18-19.64-14.583-21.51-2.632-3.51-6.06-5.87-9.815-8.23-1.69-1.07-4.258-2.03-6.35-2.74-1.187-.41-2.336-.59-3.583-.9-.628-.16-3.75-.42-4.012-.59zM10.617 31.723c0-3.847 1.82-8.833 3.146-11.478 1.802-3.602 3.53-5.616 6.204-8.305 4.366-4.39 11.98-8.283 20.733-8.283 4.404 0 9.21 1.194 12.232 2.632 2.413 1.14 7.474 4.16 8.768 6.09v9.08c-.28-.21-1.37-2.02-1.75-2.5-.666-.84-1.18-1.44-1.937-2.19-1.413-1.42-2.81-2.65-4.568-3.69-3.545-2.1-7.33-3.65-12.98-3.65h-.472c-7.002 0-13.483 3.77-16.84 7.46-3.855 4.23-6.873 9.26-6.873 17.3v.23c0 12.71 11.333 23.7 24.184 23.7h.354c5.225 0 9.456-1.83 12.744-3.77 1.67-.99 3.213-2.35 4.568-3.69.637-.63 1.355-1.51 1.898-2.24.365-.48 1.343-2.1 1.672-2.34v9.08c-1.265 1.887-6.232 4.756-8.573 5.936-2.844 1.437-7.6 2.675-11.836 2.675h-1.41c-8.43 0-15.96-4.222-20.2-8.46-2.47-2.473-4.37-4.936-6.02-8.244-1.25-2.496-3.02-7.626-3.02-11.242v-4.12zm8.848 1.768c0-6.03 3.057-11.48 6.105-14.53 2.952-2.95 8.392-6.34 14.185-6.34h1.417c4.216 0 8.703 1.87 11.256 3.61 1.957 1.33 6.363 5.49 6.91 7.84H40.23c-4.928 0-9.32 4.49-9.32 9.44v.83c0 4.88 4.645 9.2 9.67 9.2 6.252.01 12.507 0 18.76 0-2.884 5.45-9.475 11.32-17.696 11.32h-1.77c-5.935 0-11.258-3.16-14.246-6.16-2.873-2.87-6.163-8.58-6.163-14.24v-.95h.002zm45.538-17.33l12.495 17.7-12.43 17.61-.065-11.13H41.29c-2.31 0-3.573-.42-4.87-1.5-.917-.76-2.208-2.46-2.208-4.04v-1.42c0-3.57 3.34-6.13 7.078-6.13h23.713V16.16z"/><path d="M172.83 49.41v-.117H76.8c-1.654 3.447-3.133 6.46-5.516 9.23-2.223 2.58-4.676 5.286-7.556 7.187-5.804 3.828-12.425 7.406-21.965 7.406H40.11c-9.667 0-16.438-3.44-22.274-7.334-2.434-1.623-5.867-4.904-7.62-7.242-1.485-1.98-4.91-6.717-5.498-9.246H0v.117c.377.55.874 2.11 1.258 2.88.448.89.882 1.93 1.384 2.75 1.15 1.88 2.016 3.33 3.305 5.07 2.305 3.11 5.18 6.05 8.257 8.38 2.88 2.18 6.897 4.73 10.64 6 2.086.71 3.905 1.5 6.29 1.97 1.902.37 5.178 1.05 7.325 1.05h1.65c19.01 0 33.28-11.07 39.4-23.82l91.34.01 1.97-4.26z"/></svg>